%TF.GenerationSoftware,KiCad,Pcbnew,10.0.1*%
%TF.CreationDate,2026-06-24T21:56:13+02:00*%
%TF.ProjectId,tvbgone_kit_v2.0,74766267-6f6e-4655-9f6b-69745f76322e,r3*%
%TF.SameCoordinates,Original*%
%TF.FileFunction,Copper,L2,Bot*%
%TF.FilePolarity,Positive*%
%FSLAX46Y46*%
G04 Gerber Fmt 4.6, Leading zero omitted, Abs format (unit mm)*
G04 Created by KiCad (PCBNEW 10.0.1) date 2026-06-24 21:56:13*
%MOMM*%
%LPD*%
G01*
G04 APERTURE LIST*
G04 Aperture macros list*
%AMRoundRect*
0 Rectangle with rounded corners*
0 $1 Rounding radius*
0 $2 $3 $4 $5 $6 $7 $8 $9 X,Y pos of 4 corners*
0 Add a 4 corners polygon primitive as box body*
4,1,4,$2,$3,$4,$5,$6,$7,$8,$9,$2,$3,0*
0 Add four circle primitives for the rounded corners*
1,1,$1+$1,$2,$3*
1,1,$1+$1,$4,$5*
1,1,$1+$1,$6,$7*
1,1,$1+$1,$8,$9*
0 Add four rect primitives between the rounded corners*
20,1,$1+$1,$2,$3,$4,$5,0*
20,1,$1+$1,$4,$5,$6,$7,0*
20,1,$1+$1,$6,$7,$8,$9,0*
20,1,$1+$1,$8,$9,$2,$3,0*%
G04 Aperture macros list end*
%TA.AperFunction,ComponentPad*%
%ADD10C,1.600000*%
%TD*%
%TA.AperFunction,ComponentPad*%
%ADD11R,1.600000X1.600000*%
%TD*%
%TA.AperFunction,ComponentPad*%
%ADD12O,3.048000X1.750000*%
%TD*%
%TA.AperFunction,ComponentPad*%
%ADD13R,1.600000X1.300000*%
%TD*%
%TA.AperFunction,ComponentPad*%
%ADD14O,1.600000X1.300000*%
%TD*%
%TA.AperFunction,ComponentPad*%
%ADD15O,2.300000X1.500000*%
%TD*%
%TA.AperFunction,ComponentPad*%
%ADD16R,1.800000X2.000000*%
%TD*%
%TA.AperFunction,ComponentPad*%
%ADD17O,1.800000X2.000000*%
%TD*%
%TA.AperFunction,ComponentPad*%
%ADD18RoundRect,0.250200X-0.649800X0.649800X-0.649800X-0.649800X0.649800X-0.649800X0.649800X0.649800X0*%
%TD*%
%TA.AperFunction,ComponentPad*%
%ADD19C,1.800000*%
%TD*%
%TA.AperFunction,ComponentPad*%
%ADD20C,2.000000*%
%TD*%
%TA.AperFunction,ComponentPad*%
%ADD21R,3.000000X3.000000*%
%TD*%
%TA.AperFunction,ComponentPad*%
%ADD22C,3.000000*%
%TD*%
%TA.AperFunction,SMDPad,CuDef*%
%ADD23R,6.200000X5.700000*%
%TD*%
%TA.AperFunction,ComponentPad*%
%ADD24O,2.000000X1.850000*%
%TD*%
%TA.AperFunction,ComponentPad*%
%ADD25R,2.000000X1.850000*%
%TD*%
%TA.AperFunction,ComponentPad*%
%ADD26R,1.700000X1.900000*%
%TD*%
%TA.AperFunction,ComponentPad*%
%ADD27O,1.700000X1.900000*%
%TD*%
%TA.AperFunction,Conductor*%
%ADD28C,0.508000*%
%TD*%
%TA.AperFunction,Conductor*%
%ADD29C,0.304800*%
%TD*%
G04 APERTURE END LIST*
D10*
%TO.P,C2,2*%
%TO.N,GND*%
X120150000Y-116730000D03*
D11*
%TO.P,C2,1*%
%TO.N,Net-(S3-B)*%
X120150000Y-119270000D03*
%TD*%
D12*
%TO.P,S2,1,1_1*%
%TO.N,GND*%
X170180000Y-128905000D03*
%TO.P,S2,2,2_2*%
X157680000Y-128905000D03*
%TO.P,S2,3,K_3*%
%TO.N,Net-(MOD1-GPIO9)*%
X170180000Y-123905000D03*
%TO.P,S2,4,A_4*%
X157680000Y-123905000D03*
%TD*%
D13*
%TO.P,S3,1,A_1*%
%TO.N,+4.5V*%
X118110000Y-104775000D03*
D14*
%TO.P,S3,2,B_2*%
%TO.N,Net-(S3-B)*%
X118110001Y-102774999D03*
%TO.P,S3,3,C_3*%
%TO.N,unconnected-(S3-C-Pad3)*%
X118110000Y-100775000D03*
D15*
%TO.P,S3,4,Case_4*%
%TO.N,GND*%
X118110000Y-106875000D03*
%TO.P,S3,5,Case_5*%
X118110000Y-98675000D03*
%TD*%
D16*
%TO.P,LED4,A,A_A*%
%TO.N,+4.5V*%
X143325000Y-94780001D03*
D17*
%TO.P,LED4,K,K_K*%
%TO.N,Net-(LED4-PadK)*%
X145865000Y-94780001D03*
%TD*%
D16*
%TO.P,LED3,A,A_A*%
%TO.N,+4.5V*%
X136225000Y-94780001D03*
D17*
%TO.P,LED3,K,K_K*%
%TO.N,Net-(LED3-PadK)*%
X138765000Y-94780001D03*
%TD*%
D16*
%TO.P,LED1,A,A_A*%
%TO.N,+4.5V*%
X122025000Y-94780001D03*
D17*
%TO.P,LED1,K,K_K*%
%TO.N,Net-(LED1-PadK)*%
X124565000Y-94780001D03*
%TD*%
D16*
%TO.P,LED2,A,A_A*%
%TO.N,+4.5V*%
X129125000Y-94780001D03*
D17*
%TO.P,LED2,K,K_K*%
%TO.N,Net-(LED2-PadK)*%
X131665000Y-94780001D03*
%TD*%
D18*
%TO.P,U1,1,OUT_1*%
%TO.N,Net-(MOD1-GPIO3)*%
X118050000Y-88260000D03*
D19*
%TO.P,U1,2,GND_2*%
%TO.N,GND*%
X118050000Y-90800000D03*
%TO.P,U1,3,Vs_3*%
%TO.N,+4.5V*%
X118050000Y-93340000D03*
%TD*%
D12*
%TO.P,S1,1,1_1*%
%TO.N,GND*%
X170180000Y-115655000D03*
%TO.P,S1,2,2_2*%
X157680000Y-115655000D03*
%TO.P,S1,3,K_3*%
%TO.N,Net-(MOD1-GPIO10)*%
X170180000Y-110655000D03*
%TO.P,S1,4,A_4*%
X157680000Y-110655000D03*
%TD*%
D19*
%TO.P,R6,P$1*%
%TO.N,GND*%
X125175000Y-125055000D03*
%TO.P,R6,P$2*%
%TO.N,Net-(Q1-PadG)*%
X135175000Y-125055000D03*
%TD*%
D20*
%TO.P,R4,P$1*%
%TO.N,Net-(Q1-PadD)*%
X145034000Y-117454997D03*
%TO.P,R4,P$2*%
%TO.N,Net-(LED4-PadK)*%
X145034000Y-102254997D03*
%TD*%
D21*
%TO.P,B1,+,+_+*%
%TO.N,Net-(S3-B)*%
X116720000Y-124373998D03*
D22*
%TO.P,B1,-,-_-*%
%TO.N,GND*%
X116720000Y-111574000D03*
%TD*%
D19*
%TO.P,R5,P$1*%
%TO.N,Net-(MOD1-GPIO4)*%
X125175000Y-130175000D03*
%TO.P,R5,P$2*%
%TO.N,Net-(Q1-PadG)*%
X135175000Y-130175000D03*
%TD*%
D20*
%TO.P,R2,P$1*%
%TO.N,Net-(Q1-PadD)*%
X132715000Y-117454997D03*
%TO.P,R2,P$2*%
%TO.N,Net-(LED2-PadK)*%
X132715000Y-102254997D03*
%TD*%
%TO.P,R1,P$1*%
%TO.N,Net-(Q1-PadD)*%
X126365000Y-117454997D03*
%TO.P,R1,P$2*%
%TO.N,Net-(LED1-PadK)*%
X126365000Y-102254997D03*
%TD*%
D23*
%TO.P,Q1,4,Thermal_4*%
%TO.N,unconnected-(Q1-Thermal-Pad4)*%
X148403000Y-127385001D03*
D24*
%TO.P,Q1,D,D_D*%
%TO.N,Net-(Q1-PadD)*%
X140970000Y-127385001D03*
D25*
%TO.P,Q1,G,G_G*%
%TO.N,Net-(Q1-PadG)*%
X140970000Y-129675001D03*
D24*
%TO.P,Q1,S,S_S*%
%TO.N,GND*%
X140970000Y-125095001D03*
%TD*%
D20*
%TO.P,R3,P$1*%
%TO.N,Net-(Q1-PadD)*%
X138938000Y-117455000D03*
%TO.P,R3,P$2*%
%TO.N,Net-(LED3-PadK)*%
X138938000Y-102255000D03*
%TD*%
D26*
%TO.P,MOD1,1,GPIO5_1*%
%TO.N,unconnected-(MOD1-GPIO5-Pad1)*%
X170885000Y-103951000D03*
D27*
%TO.P,MOD1,2,GPIO6_2*%
%TO.N,unconnected-(MOD1-GPIO6-Pad2)*%
X168344999Y-103951001D03*
%TO.P,MOD1,3,GPIO7_3*%
%TO.N,unconnected-(MOD1-GPIO7-Pad3)*%
X165805000Y-103951000D03*
%TO.P,MOD1,4,GPIO8_4*%
%TO.N,unconnected-(MOD1-GPIO8-Pad4)*%
X163265000Y-103950999D03*
%TO.P,MOD1,5,GPIO9_5*%
%TO.N,Net-(MOD1-GPIO9)*%
X160725002Y-103951000D03*
%TO.P,MOD1,6,GPIO10_6*%
%TO.N,Net-(MOD1-GPIO10)*%
X158184999Y-103951000D03*
%TO.P,MOD1,7,GPIO20_7*%
%TO.N,unconnected-(MOD1-GPIO20-Pad7)*%
X155645000Y-103951001D03*
%TO.P,MOD1,8,GPIO21_8*%
%TO.N,unconnected-(MOD1-GPIO21-Pad8)*%
X153105000Y-103951000D03*
%TO.P,MOD1,9,GPIO0_9*%
%TO.N,unconnected-(MOD1-GPIO0-Pad9)*%
X153104999Y-88581000D03*
%TO.P,MOD1,10,GPIO1_10*%
%TO.N,unconnected-(MOD1-GPIO1-Pad10)*%
X155645000Y-88581001D03*
%TO.P,MOD1,11,GPIO2_11*%
%TO.N,unconnected-(MOD1-GPIO2-Pad11)*%
X158185001Y-88581001D03*
%TO.P,MOD1,12,GPIO3_12*%
%TO.N,Net-(MOD1-GPIO3)*%
X160724999Y-88580999D03*
%TO.P,MOD1,13,GPIO4_13*%
%TO.N,Net-(MOD1-GPIO4)*%
X163265001Y-88580999D03*
%TO.P,MOD1,14,3V3_14*%
%TO.N,unconnected-(MOD1-3V3-Pad14)*%
X165805000Y-88581000D03*
%TO.P,MOD1,15,GND_15*%
%TO.N,GND*%
X168344999Y-88581001D03*
%TO.P,MOD1,16,5V_16*%
%TO.N,+4.5V*%
X170885000Y-88581000D03*
%TD*%
D10*
%TO.P,C1,1*%
%TO.N,Net-(S3-B)*%
X116078004Y-128778000D03*
%TO.P,C1,2*%
%TO.N,GND*%
X118617996Y-128778000D03*
%TD*%
%TO.N,GND*%
D28*
X116720000Y-111574000D02*
X119448000Y-111574000D01*
X120150000Y-112276000D02*
X120150000Y-116730000D01*
X119448000Y-111574000D02*
X120150000Y-112276000D01*
X114750000Y-95400000D02*
X114750000Y-92200000D01*
X168344999Y-87318999D02*
X168344999Y-88581001D01*
X131318000Y-122428000D02*
X128691000Y-125055000D01*
X118618000Y-127000000D02*
X118618000Y-128777996D01*
X167386000Y-86360000D02*
X168344999Y-87318999D01*
X157680000Y-128905000D02*
X154813000Y-128905000D01*
X116019000Y-106875000D02*
X115316000Y-106172000D01*
X115316000Y-99822000D02*
X116463000Y-98675000D01*
X118364000Y-121412000D02*
X119634000Y-122682000D01*
X152400000Y-122174000D02*
X143891000Y-122174000D01*
X118110000Y-98675000D02*
X118110000Y-96040000D01*
X152400000Y-122174000D02*
X157680000Y-116894000D01*
X153670000Y-123444000D02*
X152400000Y-122174000D01*
X118110000Y-106875000D02*
X116019000Y-106875000D01*
X128691000Y-125055000D02*
X125175000Y-125055000D01*
X119634000Y-122682000D02*
X119634000Y-125984000D01*
X118364000Y-113218000D02*
X118364000Y-121412000D01*
X157680000Y-115655000D02*
X170180000Y-115655000D01*
X153670000Y-127762000D02*
X153670000Y-123444000D01*
X121452000Y-128778000D02*
X125175000Y-125055000D01*
X118617996Y-128778000D02*
X121452000Y-128778000D01*
X138303000Y-122428000D02*
X131318000Y-122428000D01*
X118618000Y-128777996D02*
X118617996Y-128778000D01*
X119634000Y-125984000D02*
X118618000Y-127000000D01*
X118110000Y-96040000D02*
X127790000Y-86360000D01*
X157680000Y-116894000D02*
X157680000Y-115655000D01*
X118025000Y-98675000D02*
X114750000Y-95400000D01*
X118110000Y-98675000D02*
X118025000Y-98675000D01*
X118110000Y-108458000D02*
X118110000Y-106875000D01*
X140970000Y-125095000D02*
X138303000Y-122428000D01*
X115316000Y-106172000D02*
X115316000Y-99822000D01*
X143891000Y-122174000D02*
X140970000Y-125095000D01*
X116720000Y-111574000D02*
X116720000Y-109848000D01*
X154813000Y-128905000D02*
X153670000Y-127762000D01*
X127790000Y-86360000D02*
X167386000Y-86360000D01*
X114750000Y-92200000D02*
X116150000Y-90800000D01*
X116150000Y-90800000D02*
X118050000Y-90800000D01*
X116463000Y-98675000D02*
X118110000Y-98675000D01*
X116720000Y-111574000D02*
X118364000Y-113218000D01*
X116720000Y-109848000D02*
X118110000Y-108458000D01*
X157680000Y-128905000D02*
X170180000Y-128905000D01*
%TO.N,Net-(MOD1-GPIO9)*%
X157680000Y-123905000D02*
X170180000Y-123905000D01*
%TO.N,+4.5V*%
X122025000Y-94780001D02*
X122025000Y-93113000D01*
X130048000Y-92202000D02*
X129125000Y-93125000D01*
X143325000Y-94780001D02*
X143294001Y-94780001D01*
X122025000Y-103019000D02*
X120269000Y-104775000D01*
X122025000Y-93113000D02*
X122936000Y-92202000D01*
X144272000Y-91694000D02*
X169418000Y-91694000D01*
X120269000Y-104775000D02*
X118110000Y-104775000D01*
X136225000Y-94780001D02*
X136182001Y-94780001D01*
X136906000Y-92202000D02*
X136225000Y-92883000D01*
X122936000Y-92202000D02*
X126492000Y-92202000D01*
X169418000Y-91694000D02*
X170885000Y-90227000D01*
X136225000Y-92883000D02*
X136225000Y-94780001D01*
X136182001Y-94780001D02*
X133604000Y-92202000D01*
X143325000Y-92641000D02*
X144272000Y-91694000D01*
X143325000Y-94780001D02*
X143325000Y-92641000D01*
X143294001Y-94780001D02*
X140716000Y-92202000D01*
X126492000Y-92202000D02*
X129070001Y-94780001D01*
X140716000Y-92202000D02*
X136906000Y-92202000D01*
X122025000Y-94780001D02*
X122025000Y-103019000D01*
X129070001Y-94780001D02*
X129125000Y-94780001D01*
X133604000Y-92202000D02*
X130048000Y-92202000D01*
X129125000Y-93125000D02*
X129125000Y-94780001D01*
X170885000Y-90227000D02*
X170885000Y-88581000D01*
%TO.N,Net-(LED4-PadK)*%
X145865000Y-94780001D02*
X145865000Y-101423997D01*
X145865000Y-101423997D02*
X145034000Y-102254997D01*
%TO.N,Net-(LED3-PadK)*%
X138765000Y-94780001D02*
X138765000Y-102082000D01*
X138765000Y-102082000D02*
X138938000Y-102255000D01*
%TO.N,Net-(LED1-PadK)*%
X126365000Y-96580001D02*
X126365000Y-102254997D01*
X124565000Y-94780001D02*
X126365000Y-96580001D01*
%TO.N,Net-(LED2-PadK)*%
X132715000Y-102254997D02*
X132715000Y-95631000D01*
X132715000Y-95631000D02*
X131864001Y-94780001D01*
X131864001Y-94780001D02*
X131665000Y-94780001D01*
%TO.N,Net-(MOD1-GPIO10)*%
X157680000Y-110655000D02*
X170180000Y-110655000D01*
%TO.N,Net-(Q1-PadG)*%
D29*
X139056999Y-129675001D02*
X138557000Y-130175000D01*
X138557000Y-130175000D02*
X135175000Y-130175000D01*
X135175000Y-125055000D02*
X135175000Y-130175000D01*
X140970000Y-129675001D02*
X139056999Y-129675001D01*
%TO.N,Net-(Q1-PadD)*%
D28*
X132949000Y-117455000D02*
X138938000Y-117455000D01*
X132715000Y-117454997D02*
X132948997Y-117454997D01*
X138938000Y-117455000D02*
X145033997Y-117455000D01*
X126365000Y-117454997D02*
X132715000Y-117454997D01*
X132948997Y-117454997D02*
X132949000Y-117455000D01*
X145033997Y-117455000D02*
X145034000Y-117454997D01*
%TD*%
M02*
