M48
INCH,TZ
T1C0.0197
T2C0.0276
T3C0.0315
T4C0.0354
T5C0.0394
T6C0.0433
T7C0.0472
T8C0.0591
%
G90
G05
T3
X45700Y-50700
X46700Y-50700
X47300Y-45316
X47300Y-47284
T4
X46476Y-34748
X46476Y-35748
X46476Y-36748
X49281Y-49234
X49281Y-51250
X53219Y-49234
X53219Y-51250
X60278Y-34874
X60278Y-40926
X61278Y-34874
X61278Y-40926
X62278Y-40926
X62278Y-34874
X63278Y-34874
X63278Y-40926
X64278Y-40926
X64278Y-34874
X65278Y-34874
X65278Y-40926
X66278Y-34874
X66278Y-40926
X67278Y-34874
X67278Y-40926
T5
X48041Y-37315
X49041Y-37315
X50837Y-37315
X51837Y-37315
X53632Y-37315
X54632Y-37315
X56427Y-37315
X57427Y-37315
T6
X49750Y-40258
X49750Y-46242
X52250Y-40258
X52250Y-46242
X54700Y-40258
X54700Y-46242
X55500Y-49250
X55500Y-50152
X55500Y-51053
X57100Y-40258
X57100Y-46242
T7
X62079Y-43565
X62079Y-45533
X62079Y-48781
X62079Y-50750
X67000Y-43565
X67000Y-45533
X67000Y-48781
X67000Y-50750
T8
X45953Y-43927
X45953Y-48966
T1
G00X46441Y-39675
M15
G01X46559Y-39675
M16
G05
G00X46441Y-41250
M15
G01X46559Y-41250
M16
G05
G00X46441Y-40463
M15
G01X46559Y-40463
M16
G05
T2
G00X46343Y-38848
M15
G01X46657Y-38848
M16
G05
G00X46343Y-42077
M15
G01X46657Y-42077
M16
G05
M30
