%TF.GenerationSoftware,KiCad,Pcbnew,10.0.1*%
%TF.CreationDate,2026-06-24T21:56:13+02:00*%
%TF.ProjectId,tvbgone_kit_v2.0,74766267-6f6e-4655-9f6b-69745f76322e,r3*%
%TF.SameCoordinates,Original*%
%TF.FileFunction,Copper,L1,Top*%
%TF.FilePolarity,Positive*%
%FSLAX46Y46*%
G04 Gerber Fmt 4.6, Leading zero omitted, Abs format (unit mm)*
G04 Created by KiCad (PCBNEW 10.0.1) date 2026-06-24 21:56:13*
%MOMM*%
%LPD*%
G01*
G04 APERTURE LIST*
G04 Aperture macros list*
%AMRoundRect*
0 Rectangle with rounded corners*
0 $1 Rounding radius*
0 $2 $3 $4 $5 $6 $7 $8 $9 X,Y pos of 4 corners*
0 Add a 4 corners polygon primitive as box body*
4,1,4,$2,$3,$4,$5,$6,$7,$8,$9,$2,$3,0*
0 Add four circle primitives for the rounded corners*
1,1,$1+$1,$2,$3*
1,1,$1+$1,$4,$5*
1,1,$1+$1,$6,$7*
1,1,$1+$1,$8,$9*
0 Add four rect primitives between the rounded corners*
20,1,$1+$1,$2,$3,$4,$5,0*
20,1,$1+$1,$4,$5,$6,$7,0*
20,1,$1+$1,$6,$7,$8,$9,0*
20,1,$1+$1,$8,$9,$2,$3,0*%
G04 Aperture macros list end*
%TA.AperFunction,ComponentPad*%
%ADD10C,1.600000*%
%TD*%
%TA.AperFunction,ComponentPad*%
%ADD11R,1.600000X1.600000*%
%TD*%
%TA.AperFunction,ComponentPad*%
%ADD12O,3.048000X1.750000*%
%TD*%
%TA.AperFunction,ComponentPad*%
%ADD13R,1.600000X1.300000*%
%TD*%
%TA.AperFunction,ComponentPad*%
%ADD14O,1.600000X1.300000*%
%TD*%
%TA.AperFunction,ComponentPad*%
%ADD15O,2.300000X1.500000*%
%TD*%
%TA.AperFunction,ComponentPad*%
%ADD16R,1.800000X2.000000*%
%TD*%
%TA.AperFunction,ComponentPad*%
%ADD17O,1.800000X2.000000*%
%TD*%
%TA.AperFunction,ComponentPad*%
%ADD18RoundRect,0.250200X-0.649800X0.649800X-0.649800X-0.649800X0.649800X-0.649800X0.649800X0.649800X0*%
%TD*%
%TA.AperFunction,ComponentPad*%
%ADD19C,1.800000*%
%TD*%
%TA.AperFunction,ComponentPad*%
%ADD20C,2.000000*%
%TD*%
%TA.AperFunction,ComponentPad*%
%ADD21R,3.000000X3.000000*%
%TD*%
%TA.AperFunction,ComponentPad*%
%ADD22C,3.000000*%
%TD*%
%TA.AperFunction,ComponentPad*%
%ADD23O,2.000000X1.850000*%
%TD*%
%TA.AperFunction,ComponentPad*%
%ADD24R,2.000000X1.850000*%
%TD*%
%TA.AperFunction,ComponentPad*%
%ADD25R,1.700000X1.900000*%
%TD*%
%TA.AperFunction,ComponentPad*%
%ADD26O,1.700000X1.900000*%
%TD*%
%TA.AperFunction,Conductor*%
%ADD27C,0.508000*%
%TD*%
G04 APERTURE END LIST*
D10*
%TO.P,C2,2*%
%TO.N,GND*%
X120150000Y-116730000D03*
D11*
%TO.P,C2,1*%
%TO.N,Net-(S3-B)*%
X120150000Y-119270000D03*
%TD*%
D12*
%TO.P,S2,1,1_1*%
%TO.N,GND*%
X170180000Y-128905000D03*
%TO.P,S2,2,2_2*%
X157680000Y-128905000D03*
%TO.P,S2,3,K_3*%
%TO.N,Net-(MOD1-GPIO9)*%
X170180000Y-123905000D03*
%TO.P,S2,4,A_4*%
X157680000Y-123905000D03*
%TD*%
D13*
%TO.P,S3,1,A_1*%
%TO.N,+4.5V*%
X118110000Y-104775000D03*
D14*
%TO.P,S3,2,B_2*%
%TO.N,Net-(S3-B)*%
X118110001Y-102774999D03*
%TO.P,S3,3,C_3*%
%TO.N,unconnected-(S3-C-Pad3)*%
X118110000Y-100775000D03*
D15*
%TO.P,S3,4,Case_4*%
%TO.N,GND*%
X118110000Y-106875000D03*
%TO.P,S3,5,Case_5*%
X118110000Y-98675000D03*
%TD*%
D16*
%TO.P,LED4,A,A_A*%
%TO.N,+4.5V*%
X143325000Y-94780001D03*
D17*
%TO.P,LED4,K,K_K*%
%TO.N,Net-(LED4-PadK)*%
X145865000Y-94780001D03*
%TD*%
D16*
%TO.P,LED3,A,A_A*%
%TO.N,+4.5V*%
X136225000Y-94780001D03*
D17*
%TO.P,LED3,K,K_K*%
%TO.N,Net-(LED3-PadK)*%
X138765000Y-94780001D03*
%TD*%
D16*
%TO.P,LED1,A,A_A*%
%TO.N,+4.5V*%
X122025000Y-94780001D03*
D17*
%TO.P,LED1,K,K_K*%
%TO.N,Net-(LED1-PadK)*%
X124565000Y-94780001D03*
%TD*%
D16*
%TO.P,LED2,A,A_A*%
%TO.N,+4.5V*%
X129125000Y-94780001D03*
D17*
%TO.P,LED2,K,K_K*%
%TO.N,Net-(LED2-PadK)*%
X131665000Y-94780001D03*
%TD*%
D18*
%TO.P,U1,1,OUT_1*%
%TO.N,Net-(MOD1-GPIO3)*%
X118050000Y-88260000D03*
D19*
%TO.P,U1,2,GND_2*%
%TO.N,GND*%
X118050000Y-90800000D03*
%TO.P,U1,3,Vs_3*%
%TO.N,+4.5V*%
X118050000Y-93340000D03*
%TD*%
D12*
%TO.P,S1,1,1_1*%
%TO.N,GND*%
X170180000Y-115655000D03*
%TO.P,S1,2,2_2*%
X157680000Y-115655000D03*
%TO.P,S1,3,K_3*%
%TO.N,Net-(MOD1-GPIO10)*%
X170180000Y-110655000D03*
%TO.P,S1,4,A_4*%
X157680000Y-110655000D03*
%TD*%
D19*
%TO.P,R6,P$1*%
%TO.N,GND*%
X125175000Y-125055000D03*
%TO.P,R6,P$2*%
%TO.N,Net-(Q1-PadG)*%
X135175000Y-125055000D03*
%TD*%
D20*
%TO.P,R4,P$1*%
%TO.N,Net-(Q1-PadD)*%
X145034000Y-117454997D03*
%TO.P,R4,P$2*%
%TO.N,Net-(LED4-PadK)*%
X145034000Y-102254997D03*
%TD*%
D21*
%TO.P,B1,+,+_+*%
%TO.N,Net-(S3-B)*%
X116720000Y-124373998D03*
D22*
%TO.P,B1,-,-_-*%
%TO.N,GND*%
X116720000Y-111574000D03*
%TD*%
D19*
%TO.P,R5,P$1*%
%TO.N,Net-(MOD1-GPIO4)*%
X125175000Y-130175000D03*
%TO.P,R5,P$2*%
%TO.N,Net-(Q1-PadG)*%
X135175000Y-130175000D03*
%TD*%
D20*
%TO.P,R2,P$1*%
%TO.N,Net-(Q1-PadD)*%
X132715000Y-117454997D03*
%TO.P,R2,P$2*%
%TO.N,Net-(LED2-PadK)*%
X132715000Y-102254997D03*
%TD*%
%TO.P,R1,P$1*%
%TO.N,Net-(Q1-PadD)*%
X126365000Y-117454997D03*
%TO.P,R1,P$2*%
%TO.N,Net-(LED1-PadK)*%
X126365000Y-102254997D03*
%TD*%
D23*
%TO.P,Q1,D,D_D*%
%TO.N,Net-(Q1-PadD)*%
X140970000Y-127385001D03*
D24*
%TO.P,Q1,G,G_G*%
%TO.N,Net-(Q1-PadG)*%
X140970000Y-129675001D03*
D23*
%TO.P,Q1,S,S_S*%
%TO.N,GND*%
X140970000Y-125095001D03*
%TD*%
D20*
%TO.P,R3,P$1*%
%TO.N,Net-(Q1-PadD)*%
X138938000Y-117455000D03*
%TO.P,R3,P$2*%
%TO.N,Net-(LED3-PadK)*%
X138938000Y-102255000D03*
%TD*%
D25*
%TO.P,MOD1,1,GPIO5_1*%
%TO.N,unconnected-(MOD1-GPIO5-Pad1)*%
X170885000Y-103951000D03*
D26*
%TO.P,MOD1,2,GPIO6_2*%
%TO.N,unconnected-(MOD1-GPIO6-Pad2)*%
X168344999Y-103951001D03*
%TO.P,MOD1,3,GPIO7_3*%
%TO.N,unconnected-(MOD1-GPIO7-Pad3)*%
X165805000Y-103951000D03*
%TO.P,MOD1,4,GPIO8_4*%
%TO.N,unconnected-(MOD1-GPIO8-Pad4)*%
X163265000Y-103950999D03*
%TO.P,MOD1,5,GPIO9_5*%
%TO.N,Net-(MOD1-GPIO9)*%
X160725002Y-103951000D03*
%TO.P,MOD1,6,GPIO10_6*%
%TO.N,Net-(MOD1-GPIO10)*%
X158184999Y-103951000D03*
%TO.P,MOD1,7,GPIO20_7*%
%TO.N,unconnected-(MOD1-GPIO20-Pad7)*%
X155645000Y-103951001D03*
%TO.P,MOD1,8,GPIO21_8*%
%TO.N,unconnected-(MOD1-GPIO21-Pad8)*%
X153105000Y-103951000D03*
%TO.P,MOD1,9,GPIO0_9*%
%TO.N,unconnected-(MOD1-GPIO0-Pad9)*%
X153104999Y-88581000D03*
%TO.P,MOD1,10,GPIO1_10*%
%TO.N,unconnected-(MOD1-GPIO1-Pad10)*%
X155645000Y-88581001D03*
%TO.P,MOD1,11,GPIO2_11*%
%TO.N,unconnected-(MOD1-GPIO2-Pad11)*%
X158185001Y-88581001D03*
%TO.P,MOD1,12,GPIO3_12*%
%TO.N,Net-(MOD1-GPIO3)*%
X160724999Y-88580999D03*
%TO.P,MOD1,13,GPIO4_13*%
%TO.N,Net-(MOD1-GPIO4)*%
X163265001Y-88580999D03*
%TO.P,MOD1,14,3V3_14*%
%TO.N,unconnected-(MOD1-3V3-Pad14)*%
X165805000Y-88581000D03*
%TO.P,MOD1,15,GND_15*%
%TO.N,GND*%
X168344999Y-88581001D03*
%TO.P,MOD1,16,5V_16*%
%TO.N,+4.5V*%
X170885000Y-88581000D03*
%TD*%
D10*
%TO.P,C1,1*%
%TO.N,Net-(S3-B)*%
X116078004Y-128778000D03*
%TO.P,C1,2*%
%TO.N,GND*%
X118617996Y-128778000D03*
%TD*%
%TO.N,Net-(S3-B)*%
D27*
X120150000Y-123690000D02*
X120150000Y-119270000D01*
X122428000Y-116992000D02*
X120150000Y-119270000D01*
X118110001Y-102774999D02*
X119538999Y-102774999D01*
X119538999Y-102774999D02*
X122428000Y-105664000D01*
X122428000Y-105664000D02*
X122428000Y-116992000D01*
X116720000Y-124373998D02*
X119466002Y-124373998D01*
X119466002Y-124373998D02*
X120150000Y-123690000D01*
%TO.N,Net-(MOD1-GPIO9)*%
X157680000Y-121466000D02*
X160725002Y-118420998D01*
X160725002Y-118420998D02*
X160725002Y-103951000D01*
X157680000Y-123905000D02*
X157680000Y-121466000D01*
%TO.N,+4.5V*%
X119490001Y-94780001D02*
X118050000Y-93340000D01*
X122025000Y-94780001D02*
X119490001Y-94780001D01*
%TO.N,Net-(S3-B)*%
X116720000Y-128136004D02*
X116078004Y-128778000D01*
X116720000Y-124373998D02*
X116720000Y-128136004D01*
%TO.N,Net-(MOD1-GPIO3)*%
X158850000Y-92100000D02*
X160724999Y-90225001D01*
X160724999Y-90225001D02*
X160724999Y-88580999D01*
X118050000Y-88260000D02*
X139010000Y-88260000D01*
X142850000Y-92100000D02*
X158850000Y-92100000D01*
X139010000Y-88260000D02*
X142850000Y-92100000D01*
%TO.N,Net-(MOD1-GPIO10)*%
X159258000Y-105024001D02*
X158184999Y-103951000D01*
X157680000Y-110655000D02*
X159258000Y-109077000D01*
X159258000Y-109077000D02*
X159258000Y-105024001D01*
%TO.N,Net-(Q1-PadD)*%
X137668000Y-118725000D02*
X138938000Y-117455000D01*
X140970000Y-127385001D02*
X138561001Y-127385001D01*
X137668000Y-126492000D02*
X137668000Y-118725000D01*
X138561001Y-127385001D02*
X137668000Y-126492000D01*
%TO.N,Net-(MOD1-GPIO4)*%
X135890000Y-119126000D02*
X135890000Y-111760000D01*
X125175000Y-130175000D02*
X128143000Y-130175000D01*
X160350000Y-94150000D02*
X163265001Y-91234999D01*
X137160000Y-110490000D02*
X141986000Y-110490000D01*
X132334000Y-122682000D02*
X135890000Y-119126000D01*
X163265001Y-91234999D02*
X163265001Y-88580999D01*
X132334000Y-125984000D02*
X132334000Y-122682000D01*
X135890000Y-111760000D02*
X137160000Y-110490000D01*
X158326000Y-94150000D02*
X160350000Y-94150000D01*
X128143000Y-130175000D02*
X132334000Y-125984000D01*
X141986000Y-110490000D02*
X158326000Y-94150000D01*
%TD*%
%TA.AperFunction,NonConductor*%
G36*
X169343039Y-96793685D02*
G01*
X169388794Y-96846489D01*
X169400000Y-96898000D01*
X169400000Y-98428000D01*
X169380315Y-98495039D01*
X169327511Y-98540794D01*
X169276000Y-98552000D01*
X161414000Y-98552000D01*
X161346961Y-98532315D01*
X161301206Y-98479511D01*
X161290000Y-98428000D01*
X161290000Y-96898000D01*
X161309685Y-96830961D01*
X161362489Y-96785206D01*
X161414000Y-96774000D01*
X169276000Y-96774000D01*
X169343039Y-96793685D01*
G37*
%TD.AperFunction*%
%TA.AperFunction,NonConductor*%
G36*
X152851039Y-123209685D02*
G01*
X152896794Y-123262489D01*
X152908000Y-123314000D01*
X152908000Y-133734000D01*
X152888315Y-133801039D01*
X152835511Y-133846794D01*
X152784000Y-133858000D01*
X114170000Y-133858000D01*
X114102961Y-133838315D01*
X114057206Y-133785511D01*
X114046000Y-133734000D01*
X114046000Y-130934000D01*
X114065685Y-130866961D01*
X114118489Y-130821206D01*
X114170000Y-130810000D01*
X117789637Y-130810000D01*
X117856676Y-130829685D01*
X117892811Y-130865217D01*
X118364000Y-131572000D01*
X125032923Y-131572000D01*
X125052309Y-131573525D01*
X125064778Y-131575500D01*
X125064784Y-131575500D01*
X125285216Y-131575500D01*
X125285222Y-131575500D01*
X125297690Y-131573525D01*
X125317077Y-131572000D01*
X135032923Y-131572000D01*
X135052309Y-131573525D01*
X135064778Y-131575500D01*
X135064784Y-131575500D01*
X135285216Y-131575500D01*
X135285222Y-131575500D01*
X135297690Y-131573525D01*
X135317077Y-131572000D01*
X142748000Y-131572000D01*
X142748000Y-123314000D01*
X142767685Y-123246961D01*
X142820489Y-123201206D01*
X142872000Y-123190000D01*
X152784000Y-123190000D01*
X152851039Y-123209685D01*
G37*
%TD.AperFunction*%
M02*
