M48
INCH
T1C0.0197
T2C0.0276
T3C0.0315
T4C0.0354
T5C0.0394
T6C0.0433
T7C0.0472
T8C0.0591
%
G90
G05
T3
X4.57Y-5.07
X4.67Y-5.07
X4.7303Y-4.5957
X4.7303Y-4.6957
T4
X4.6476Y-3.4748
X4.6476Y-3.5748
X4.6476Y-3.6748
X4.9281Y-4.9234
X4.9281Y-5.125
X5.3219Y-4.9234
X5.3219Y-5.125
X6.0278Y-3.4874
X6.0278Y-4.0926
X6.1278Y-3.4874
X6.1278Y-4.0926
X6.2278Y-4.0926
X6.2278Y-3.4874
X6.3278Y-3.4874
X6.3278Y-4.0926
X6.4278Y-4.0926
X6.4278Y-3.4874
X6.5278Y-3.4874
X6.5278Y-4.0926
X6.6278Y-3.4874
X6.6278Y-4.0926
X6.7278Y-3.4874
X6.7278Y-4.0926
T5
X4.8041Y-3.7315
X4.9041Y-3.7315
X5.0837Y-3.7315
X5.1837Y-3.7315
X5.3632Y-3.7315
X5.4632Y-3.7315
X5.6427Y-3.7315
X5.7427Y-3.7315
T6
X4.975Y-4.0258
X4.975Y-4.6242
X5.225Y-4.0258
X5.225Y-4.6242
X5.47Y-4.0258
X5.47Y-4.6242
X5.55Y-4.925
X5.55Y-5.0152
X5.55Y-5.1053
X5.71Y-4.0258
X5.71Y-4.6242
T7
X6.2079Y-4.3565
X6.2079Y-4.5533
X6.2079Y-4.8781
X6.2079Y-5.075
X6.7Y-4.3565
X6.7Y-4.5533
X6.7Y-4.8781
X6.7Y-5.075
T8
X4.5953Y-4.3927
X4.5953Y-4.8966
T1
G00X4.6441Y-3.9675
M15
G01X4.6559Y-3.9675
M16
G05
G00X4.6441Y-4.125
M15
G01X4.6559Y-4.125
M16
G05
G00X4.6441Y-4.0463
M15
G01X4.6559Y-4.0463
M16
G05
T2
G00X4.6343Y-3.8848
M15
G01X4.6657Y-3.8848
M16
G05
G00X4.6343Y-4.2077
M15
G01X4.6657Y-4.2077
M16
G05
M30
