G04 #@! TF.GenerationSoftware,KiCad,Pcbnew,10.0.1*
G04 #@! TF.CreationDate,2026-05-14T20:06:51+02:00*
G04 #@! TF.ProjectId,tvbgone_kit_v2.0,74766267-6f6e-4655-9f6b-69745f76322e,r2b*
G04 #@! TF.SameCoordinates,Original*
G04 #@! TF.FileFunction,Soldermask,Bot*
G04 #@! TF.FilePolarity,Negative*
%FSLAX46Y46*%
G04 Gerber Fmt 4.6, Leading zero omitted, Abs format (unit mm)*
G04 Created by KiCad (PCBNEW 10.0.1) date 2026-05-14 20:06:51*
%MOMM*%
%LPD*%
G01*
G04 APERTURE LIST*
G04 Aperture macros list*
%AMRoundRect*
0 Rectangle with rounded corners*
0 $1 Rounding radius*
0 $2 $3 $4 $5 $6 $7 $8 $9 X,Y pos of 4 corners*
0 Add a 4 corners polygon primitive as box body*
4,1,4,$2,$3,$4,$5,$6,$7,$8,$9,$2,$3,0*
0 Add four circle primitives for the rounded corners*
1,1,$1+$1,$2,$3*
1,1,$1+$1,$4,$5*
1,1,$1+$1,$6,$7*
1,1,$1+$1,$8,$9*
0 Add four rect primitives between the rounded corners*
20,1,$1+$1,$2,$3,$4,$5,0*
20,1,$1+$1,$4,$5,$6,$7,0*
20,1,$1+$1,$6,$7,$8,$9,0*
20,1,$1+$1,$8,$9,$2,$3,0*%
G04 Aperture macros list end*
%ADD10O,3.251200X1.953200*%
%ADD11R,1.600000X1.300000*%
%ADD12O,1.600000X1.300000*%
%ADD13O,2.300000X1.500000*%
%ADD14RoundRect,0.101600X-0.900000X-1.000000X0.900000X-1.000000X0.900000X1.000000X-0.900000X1.000000X0*%
%ADD15O,2.003200X2.203200*%
%ADD16RoundRect,0.250200X-0.649800X0.649800X-0.649800X-0.649800X0.649800X-0.649800X0.649800X0.649800X0*%
%ADD17C,1.800000*%
%ADD18C,2.003200*%
%ADD19C,2.203200*%
%ADD20R,3.000000X3.000000*%
%ADD21C,3.000000*%
%ADD22R,6.200000X5.700000*%
%ADD23O,2.000000X1.850000*%
%ADD24R,2.000000X1.850000*%
%ADD25R,1.700000X1.900000*%
%ADD26O,1.700000X1.900000*%
%ADD27RoundRect,0.102000X0.800000X-0.800000X0.800000X0.800000X-0.800000X0.800000X-0.800000X-0.800000X0*%
%ADD28C,1.804000*%
%ADD29C,1.803200*%
G04 APERTURE END LIST*
D10*
X170180000Y-128905000D03*
X157680000Y-128905000D03*
X170180000Y-123905000D03*
X157680000Y-123905000D03*
D11*
X118110000Y-104775000D03*
D12*
X118110001Y-102774999D03*
X118110000Y-100775000D03*
D13*
X118110000Y-106875000D03*
X118110000Y-98675000D03*
D14*
X143325000Y-94780001D03*
D15*
X145865000Y-94780001D03*
D14*
X136225000Y-94780001D03*
D15*
X138765000Y-94780001D03*
D14*
X122025000Y-94780001D03*
D15*
X124565000Y-94780001D03*
D14*
X129125000Y-94780001D03*
D15*
X131665000Y-94780001D03*
D16*
X118050000Y-88260000D03*
D17*
X118050000Y-90800000D03*
X118050000Y-93340000D03*
D10*
X170180000Y-115655000D03*
X157680000Y-115655000D03*
X170180000Y-110655000D03*
X157680000Y-110655000D03*
D18*
X125175000Y-125055000D03*
X135175000Y-125055000D03*
D19*
X145034000Y-117454997D03*
X145034000Y-102254997D03*
D20*
X116720000Y-124373998D03*
D21*
X116720000Y-111574000D03*
D18*
X125175000Y-130175000D03*
X135175000Y-130175000D03*
D19*
X132715000Y-117454997D03*
X132715000Y-102254997D03*
X126365000Y-117454997D03*
X126365000Y-102254997D03*
D22*
X148403000Y-127385001D03*
D23*
X140970000Y-127385001D03*
D24*
X140970000Y-129675001D03*
D23*
X140970000Y-125095001D03*
D19*
X138938000Y-117455000D03*
X138938000Y-102255000D03*
D25*
X170885000Y-103951000D03*
D26*
X168344999Y-103951001D03*
X165805000Y-103951000D03*
X163265000Y-103950999D03*
X160725002Y-103951000D03*
X158184999Y-103951000D03*
X155645000Y-103951001D03*
X153105000Y-103951000D03*
X153104999Y-88581000D03*
X155645000Y-88581001D03*
X158185001Y-88581001D03*
X160724999Y-88580999D03*
X163265001Y-88580999D03*
X165805000Y-88581000D03*
X168344999Y-88581001D03*
X170885000Y-88581000D03*
D27*
X120142000Y-120102000D03*
D28*
X120142000Y-115102000D03*
D29*
X116078004Y-128778000D03*
X118617996Y-128778000D03*
M02*
